<?xml version="1.0" standalone="no"?>
<!DOCTYPE svg PUBLIC "-//W3C//DTD SVG 20010904//EN"
 "http://www.w3.org/TR/2001/REC-SVG-20010904/DTD/svg10.dtd">
<svg version="1.0" xmlns="http://www.w3.org/2000/svg"
 width="500.000000pt" height="500.000000pt" viewBox="0 0 500.000000 500.000000"
 preserveAspectRatio="xMidYMid meet">

<g transform="translate(0.000000,500.000000) scale(0.100000,-0.100000)"
fill="#000000" stroke="none">
<path d="M2219 4935 c-574 -70 -1094 -328 -1486 -739 -188 -197 -308 -368
-428 -611 -120 -243 -183 -439 -228 -710 -17 -108 -21 -171 -21 -375 0 -271
15 -395 73 -622 110 -427 353 -837 680 -1150 367 -352 820 -573 1341 -654 162
-26 538 -26 700 0 287 45 535 125 777 251 467 243 838 621 1068 1090 180 366
250 671 250 1085 0 414 -70 718 -250 1086 -330 672 -961 1161 -1697 1314 -234
49 -550 63 -779 35z m626 -145 c248 -37 446 -100 680 -215 688 -337 1160 -991
1271 -1760 12 -82 18 -182 18 -315 0 -372 -72 -683 -233 -1015 -180 -371 -457
-687 -807 -920 -120 -80 -362 -201 -499 -249 -511 -177 -1043 -177 -1550 0
-137 48 -380 169 -499 249 -560 374 -926 954 -1022 1620 -24 163 -24 467 0
630 61 422 235 822 502 1152 95 116 272 287 396 380 360 272 772 426 1248 467
95 8 371 -5 495 -24z"/>
<path d="M2393 4552 c-56 -136 -190 -458 -297 -717 -107 -258 -212 -513 -233
-565 l-39 -94 -90 -37 c-49 -20 -303 -125 -564 -233 -261 -109 -586 -243 -722
-299 -136 -56 -248 -104 -248 -107 0 -3 87 -40 193 -84 105 -43 217 -89 247
-102 30 -13 285 -118 565 -234 281 -116 534 -221 564 -234 l55 -23 39 -94 c21
-52 126 -305 233 -564 107 -259 241 -581 297 -717 56 -136 104 -248 107 -248
3 0 51 112 107 248 56 136 190 458 297 717 107 259 212 513 233 565 l39 94 90
37 c337 139 1049 434 1094 453 30 13 142 59 247 102 106 44 193 81 193 84 0 3
-87 40 -193 84 -105 43 -217 89 -247 102 -45 19 -757 314 -1094 453 l-90 37
-39 94 c-21 52 -126 307 -233 565 -107 259 -241 581 -297 717 -56 136 -104
248 -107 248 -3 0 -51 -112 -107 -248z m332 -1171 c250 -64 472 -244 586 -476
74 -150 92 -230 92 -405 0 -174 -18 -253 -92 -405 -87 -177 -228 -318 -406
-406 -150 -74 -230 -92 -405 -92 -175 0 -255 18 -405 92 -231 114 -409 332
-477 586 -17 64 -21 108 -21 225 0 175 18 255 92 405 127 257 365 436 654 491
98 18 279 11 382 -15z"/>
<path d="M877 4112 c3 -9 84 -206 180 -437 96 -231 195 -471 220 -532 26 -62
52 -113 57 -113 6 1 110 42 231 93 l220 92 92 220 c51 121 92 225 93 231 0 5
-51 31 -112 57 -62 25 -302 124 -533 220 -502 208 -455 190 -448 169z"/>
<path d="M4020 4086 c-729 -301 -990 -412 -990 -420 1 -6 42 -110 93 -231 l92
-220 165 -68 c91 -37 190 -79 221 -92 31 -14 61 -25 66 -25 5 0 30 51 56 113
25 61 124 301 220 532 176 426 188 455 184 455 -1 0 -49 -20 -107 -44z"/>
<path d="M1277 1858 c-25 -62 -124 -302 -220 -533 -208 -502 -190 -455 -169
-448 9 3 206 84 437 180 231 96 471 195 533 220 61 26 112 52 112 57 -1 6 -42
110 -93 231 l-92 220 -220 92 c-121 51 -225 92 -231 93 -5 0 -31 -51 -57 -112z"/>
<path d="M3435 1877 l-220 -92 -92 -220 c-51 -121 -92 -225 -93 -231 0 -5 51
-31 113 -57 61 -25 301 -124 532 -220 231 -96 428 -177 437 -180 21 -7 39 -54
-169 448 -96 231 -195 471 -220 533 -26 61 -52 112 -57 112 -6 -1 -110 -42
-231 -93z"/>
</g>
</svg>
