<?xml version="1.0" standalone="no"?>
<!DOCTYPE svg PUBLIC "-//W3C//DTD SVG 20010904//EN"
 "http://www.w3.org/TR/2001/REC-SVG-20010904/DTD/svg10.dtd">
<svg version="1.0" xmlns="http://www.w3.org/2000/svg"
 width="503.000000pt" height="497.000000pt" viewBox="0 0 503.000000 497.000000"
 preserveAspectRatio="xMidYMid meet">

<g transform="translate(0.000000,497.000000) scale(0.100000,-0.100000)"
fill="#000000" stroke="none">
<path d="M1253 4680 c-172 -93 -320 -208 -478 -371 -342 -352 -570 -812 -631
-1274 -19 -141 -24 -379 -8 -395 7 -7 250 -9 784 -8 l774 3 13 79 c26 154 76
282 153 396 43 63 169 197 227 241 l32 24 -47 80 c-26 44 -200 347 -387 673
-187 325 -344 592 -350 592 -5 0 -43 -18 -82 -40z"/>
<path d="M3670 4657 c-309 -535 -740 -1296 -740 -1308 0 -9 18 -29 40 -44 66
-46 193 -197 248 -295 41 -73 99 -249 109 -330 l8 -65 782 -3 782 -2 6 43 c9
61 -12 331 -36 457 -72 375 -236 731 -475 1026 -95 117 -297 313 -401 387 -73
52 -280 177 -293 177 -3 0 -16 -19 -30 -43z"/>
<path d="M2421 3100 c-69 -15 -165 -64 -217 -112 -110 -100 -160 -223 -152
-375 3 -77 9 -100 41 -167 47 -100 119 -171 224 -223 76 -37 79 -38 193 -38
114 0 117 1 191 37 379 187 351 722 -46 858 -70 24 -173 33 -234 20z"/>
<path d="M1972 1763 c-55 -93 -169 -287 -254 -433 -86 -146 -217 -370 -292
-498 -75 -128 -136 -237 -136 -242 0 -22 259 -156 414 -214 123 -47 328 -99
470 -121 90 -14 157 -16 380 -12 243 4 284 8 394 31 242 52 507 155 681 266
50 33 62 45 58 61 -7 26 -767 1329 -775 1329 -4 0 -31 -9 -61 -21 -121 -45
-219 -63 -361 -62 -146 1 -231 15 -345 58 -37 14 -69 25 -71 25 -2 0 -48 -75
-102 -167z"/>
</g>
</svg>
